<svg width="143" height="24" viewBox="0 0 143 24" fill="none" xmlns="http://www.w3.org/2000/svg">
<path d="M115.55 21.0377L104.526 0.987429C104.193 0.377143 103.573 0 102.9 0C102.227 0 101.607 0.377143 101.274 0.987429L90.2498 21.0377C89.9167 21.648 89.9167 22.4023 90.2498 23.0126C90.5829 23.6229 91.2033 24 91.876 24H113.924C114.597 24 115.217 23.6229 115.55 23.0126C115.883 22.3954 115.883 21.648 115.55 21.0377Z" fill="#FF6DCD"/>
<path d="M44.4788 24C51.1062 24 56.4788 18.6274 56.4788 12C56.4788 5.37258 51.1062 0 44.4788 0C37.8513 0 32.4788 5.37258 32.4788 12C32.4788 18.6274 37.8513 24 44.4788 24Z" fill="#FFA02A"/>
<path d="M139.265 24H121.142C119.517 24 118.2 22.683 118.2 21.0589V2.94114C118.2 1.31703 119.517 0 121.142 0H139.258C140.883 0 142.2 1.31703 142.2 2.94114V21.052C142.207 22.683 140.889 24 139.265 24Z" fill="#45DFCD"/>
<path d="M11.9274 24C8.74152 24 5.75151 22.7517 3.49922 20.4851C1.24039 18.2185 0 15.2028 0 11.9967C0 8.79058 1.24039 5.78155 3.49269 3.51492C5.74498 1.24829 8.74152 0 11.9274 0C14.937 0 17.8095 1.13003 20.0095 3.17985C20.7733 3.88941 20.819 5.08514 20.114 5.84725C19.4089 6.61593 18.2207 6.66192 17.4634 5.95237C15.9554 4.5464 13.9903 3.77772 11.9274 3.77772C9.74689 3.77772 7.69044 4.63181 6.14974 6.18232C4.60904 7.73282 3.75382 9.80235 3.75382 11.9967C3.75382 14.1911 4.60252 16.254 6.14974 17.8111C7.69044 19.3616 9.74689 20.2157 11.9274 20.2157C14.1079 20.2157 16.1578 19.3616 17.705 17.8111C18.4362 17.0753 19.6243 17.0753 20.3621 17.8111C21.0932 18.5469 21.0932 19.7427 20.3621 20.4851C18.1032 22.7517 15.1067 24 11.9274 24Z" fill="#222222"/>
<path d="M36.5852 24C30.0111 24 24.6643 18.6192 24.6643 12.0033C24.6643 5.38735 30.0111 0 36.5852 0C43.1592 0 48.506 5.38078 48.506 11.9967C48.506 18.6126 43.1592 24 36.5852 24ZM36.5852 3.77772C32.0806 3.77772 28.4181 7.46346 28.4181 11.9967C28.4181 16.53 32.0806 20.2157 36.5852 20.2157C41.0897 20.2157 44.7522 16.53 44.7522 11.9967C44.7522 7.46346 41.0897 3.77772 36.5852 3.77772Z" fill="#222222"/>
<path d="M53.1734 23.5072C54.2947 23.5072 55.2037 22.5924 55.2037 21.4639C55.2037 20.3354 54.2947 19.4207 53.1734 19.4207C52.0521 19.4207 51.1431 20.3354 51.1431 21.4639C51.1431 22.5924 52.0521 23.5072 53.1734 23.5072Z" fill="#222222"/>
<path d="M77.2123 24H63.0321C61.9795 24 61.1255 23.1152 61.1255 22.0246V1.97542C61.1255 0.884824 61.9795 0 63.0321 0C64.0847 0 64.9387 0.884824 64.9387 1.97542V20.056H77.2189C78.2715 20.056 79.1255 20.9408 79.1255 22.0314C79.1189 23.122 78.2649 24 77.2123 24Z" fill="#222222"/>
<path d="M123.794 24C123.787 24 123.787 24 123.794 24H112.896C111.832 24 110.969 23.1152 110.969 22.0246V1.97542C110.969 0.884824 111.832 0 112.896 0H123.245C123.426 0 125.005 0.0274363 126.617 0.871106C128.905 2.07145 130.169 4.32123 130.169 7.20892C130.169 9.41755 129.387 11.002 128.276 12.0926C129.139 12.9774 130.169 14.5825 130.169 17.2369C130.169 19.9394 129.012 22.052 126.912 23.1838C125.426 23.9726 123.961 24 123.794 24ZM114.816 20.056H123.794C124.543 20.0354 126.323 19.7268 126.323 17.2301C126.323 14.3767 124.316 14.0474 123.446 14.0406H114.823V20.056H114.816ZM114.816 10.0897H123.426C123.433 10.0897 123.433 10.0897 123.439 10.0897C126.035 10.028 126.323 8.05259 126.323 7.20206C126.323 6.66705 126.176 3.99886 123.225 3.94398H114.816V10.0897Z" fill="#222222"/>
<path d="M105.824 24H83.7761C83.1034 24 82.483 23.6229 82.15 23.0126C81.8169 22.4023 81.8169 21.648 82.15 21.0377L93.174 0.987429C93.507 0.377143 94.1275 0 94.8001 0C95.4728 0 96.0933 0.377143 96.4263 0.987429L107.45 21.0377C107.783 21.648 107.783 22.4023 107.45 23.0126C107.117 23.6297 106.497 24 105.824 24ZM87.0285 20.0571H102.572L94.8001 5.92457L87.0285 20.0571Z" fill="#222222"/>
</svg>
